HIERARCHY
ROOT Hips
{
	OFFSET 0.00000 0.00000 0.00000
	CHANNELS 6 Xposition Yposition Zposition Zrotation Yrotation Xrotation 
	JOINT LHipJoint
	{
		OFFSET 0 0 0
		CHANNELS 3 Zrotation Yrotation Xrotation
		JOINT LeftHip
		{
			OFFSET 1.26600 -1.82114 0.91038
			CHANNELS 3 Zrotation Yrotation Xrotation
			JOINT LeftKnee
			{
				OFFSET 2.50076 -6.87080 0.00000
				CHANNELS 3 Zrotation Yrotation Xrotation
				JOINT LeftAnkle
				{
					OFFSET 2.57364 -7.07102 0.00000
					CHANNELS 3 Zrotation Yrotation Xrotation
					JOINT LeftToe
					{
						OFFSET 0.13572 -0.37290 1.97004
						CHANNELS 3 Zrotation Yrotation Xrotation
						End Site
						{
							OFFSET 0.00000 -0.00000 1.01383
						}
					}
				}
			}
		}
	}
	JOINT RHipJoint
	{
		OFFSET 0 0 0
		CHANNELS 3 Zrotation Yrotation Xrotation
		JOINT RightHip
		{
			OFFSET -1.20803 -1.82114 0.91038
			CHANNELS 3 Zrotation Yrotation Xrotation
			JOINT RightKnee
			{
				OFFSET -2.54916 -7.00377 0.00000
				CHANNELS 3 Zrotation Yrotation Xrotation
				JOINT RightAnkle
				{
					OFFSET -2.56374 -7.04382 0.00000
					CHANNELS 3 Zrotation Yrotation Xrotation
					JOINT RightToe
					{
						OFFSET -0.23520 -0.64621 2.09921
						CHANNELS 3 Zrotation Yrotation Xrotation
						End Site
						{
							OFFSET -0.00000 -0.00000 1.10065
						}
					}
				}
			}
		}
	}
	JOINT lowerback
	{
		OFFSET 0 0 0
		CHANNELS 3 Zrotation Yrotation Xrotation
		JOINT Chest
		{
			OFFSET 0.05492 2.10797 -0.12074
			CHANNELS 3 Zrotation Yrotation Xrotation
			JOINT Chest2
			{
				OFFSET 0.04577 2.11592 -0.04483
				CHANNELS 3 Zrotation Yrotation Xrotation
				JOINT lowerneck
				{
					OFFSET 0 0 0
					CHANNELS 3 Zrotation Yrotation Xrotation
					JOINT Neck
					{
						OFFSET -0.10759 1.80167 0.15770
						CHANNELS 3 Zrotation Yrotation Xrotation
						JOINT Head
						{
							OFFSET 0.09237 1.77509 -0.40848
							CHANNELS 3 Zrotation Yrotation Xrotation
							End Site
							{
								OFFSET 0.03805 1.84093 -0.15754
							}
						}
					}
				}
				JOINT LeftCollar
				{
					OFFSET 0 0 0
					CHANNELS 3 Zrotation Yrotation Xrotation
					JOINT LeftShoulder
					{
						OFFSET 3.42372 1.09575 -0.28209
CHANNELS 3 Zrotation Xrotation Yrotation
						JOINT LeftElbow
						{
OFFSET 0 -4.956810 0.000000
CHANNELS 3 Zrotation Xrotation Yrotation
							JOINT LeftWrist
							{
OFFSET 0 -3.409150 0.000000
CHANNELS 3 Zrotation Xrotation Yrotation
								JOINT lhand
								{
									OFFSET 0 0 0
CHANNELS 3 Zrotation Xrotation Yrotation
									JOINT LFingers
									{
OFFSET 0 -0.616400 0.000000
CHANNELS 3 Zrotation Xrotation Yrotation
										End Site
										{
OFFSET 0 -0.496960 0.000000
										}
									}
								}
								JOINT LThumb
								{
OFFSET 0 0.000000 0.000000
CHANNELS 3 Zrotation Xrotation Yrotation
									End Site
									{
OFFSET 0 -0.504550 0.504550
									}
								}
							}
						}
					}
				}
				JOINT RightCollar
				{
					OFFSET 0 0 0
					CHANNELS 3 Zrotation Yrotation Xrotation
					JOINT RightShoulder
					{
						OFFSET -3.24731 1.15872 -0.32221
CHANNELS 3 Zrotation Xrotation Yrotation
						JOINT RightElbow
						{
OFFSET 0 -5.352000 0.000000
CHANNELS 3 Zrotation Xrotation Yrotation
							JOINT RightWrist
							{
OFFSET 0 -3.437210 -0.000000
CHANNELS 3 Zrotation Xrotation Yrotation
								JOINT rhand
								{
									OFFSET 0 0 0
CHANNELS 3 Zrotation Xrotation Yrotation
									JOINT RFingers
									{
OFFSET 0 -0.720090 0.000000
CHANNELS 3 Zrotation Xrotation Yrotation
										End Site
										{
OFFSET 0 -0.580560 0.000000
										}
									}
								}
								JOINT RThumb
								{
OFFSET 0 0.000000 0.000000
CHANNELS 3 Zrotation Xrotation Yrotation
									End Site
									{
OFFSET 0 -0.589420 0.589420
									}
								}
							}
						}
					}
				}
			}
		}
	}
}
MOTION
Frames: 6
Frame Time: 0.008333333333333333
-0.623216 20.469259 -10.484931 -171.161459 4.098160 -182.424346 0.000000 0.000000 0.000000 -4.987287 -4.823759 -38.792959 14.443466 19.243052 73.554408 -0.012097 -5.520876 7.503312 0.268530 3.324925 9.185387 0.000000 0.000000 0.000000 32.418578 -4.133760 4.767854 -0.869445 -5.944021 16.622478 -0.393419 7.116263 -11.495805 -2.343387 -9.543180 27.513236 6.623862 0.487551 7.217299 4.196371 1.671781 4.132352 0.512815 1.154163 0.277182 -8.274189 -3.845050 -11.550284 3.131321 0.766434 39.839227 3.482040 1.180263 16.245988 0.000000 0.000000 0.000000 -1.287629 6.104962 -17.292304 13.944092 -22.654112 2.806848 18.195505 7.677633 -20.880721 0.000000 0.000000 0.000000 -7.125000 0.000000 0.000000 -10.558186 51.555566 1.721161 0.000000 0.000000 0.000000 -3.359218 0.756895 12.004350 -11.877093 -19.620093 -2.060835 -21.996359 -10.898621 -12.565726 0.000000 0.000000 0.000000 7.125000 0.000000 0.000000 3.645536 16.480257 2.466607
-0.591508 20.419758 -10.840362 -171.105957 4.473227 -182.888472 0.000000 0.000000 0.000000 -4.579900 -4.331206 -41.704581 12.911431 18.749774 68.850050 0.004199 -7.066333 10.175068 0.125793 2.286514 6.298062 0.000000 0.000000 0.000000 32.585773 -4.292412 7.200244 -0.776686 -5.627057 15.706017 -0.544481 6.852674 -13.275220 -1.747513 -8.318335 23.685693 7.031523 0.658184 7.361315 3.957307 1.927373 4.263860 0.023056 1.295144 0.367412 -8.065790 -3.853079 -11.103206 3.006070 0.818384 39.900098 3.401497 1.252106 16.163895 0.000000 0.000000 0.000000 -1.454274 6.416820 -15.277741 12.484440 -20.527065 2.269309 16.858130 8.211966 -21.070053 0.000000 0.000000 0.000000 -7.125000 0.000000 0.000000 -11.939055 51.520332 1.940470 0.000000 0.000000 0.000000 -3.334245 0.536230 12.392397 -12.157979 -20.041122 -2.156150 -22.128189 -11.640121 -13.248798 0.000000 0.000000 0.000000 7.125000 0.000000 0.000000 3.584947 15.737836 2.483168
-0.579743 20.307555 -11.249772 -171.394871 5.033832 -183.531658 0.000000 0.000000 0.000000 -5.099891 -3.640910 -41.345775 9.951259 17.379612 59.321655 0.373295 -5.213872 14.642334 0.024189 0.999672 2.747937 0.000000 0.000000 0.000000 32.214579 -5.010054 10.157203 -0.693395 -5.323065 14.832333 -0.816280 6.429227 -16.115620 -0.601559 -4.958868 13.792487 6.726442 0.716124 7.334959 3.810494 1.975323 4.688100 0.048954 1.343042 0.819622 -8.264200 -3.857994 -11.228789 3.252591 0.752698 39.941226 3.537403 1.214890 16.220492 0.000000 0.000000 0.000000 -1.878594 5.970390 -12.247262 11.150737 -18.518851 1.823605 15.252790 11.384037 -22.235386 0.000000 0.000000 0.000000 -7.125000 0.000000 0.000000 -13.989433 52.404416 2.591333 0.000000 0.000000 0.000000 -3.739343 0.162051 14.774363 -13.160884 -21.522480 -2.512042 -22.389519 -13.375663 -12.350676 0.000000 0.000000 0.000000 7.125000 0.000000 0.000000 3.363686 16.671426 2.261159
-0.582778 20.214231 -11.718158 -171.611589 5.762106 -183.684930 0.000000 0.000000 0.000000 -5.569434 -3.552934 -38.340682 6.373430 14.776873 46.455625 1.206530 4.924138 19.740735 0.305772 3.503604 9.689158 0.000000 0.000000 0.000000 31.903818 -4.937094 12.025152 -0.727904 -5.451103 15.199906 -0.996236 6.230982 -17.800617 -0.468736 -4.194192 11.652957 6.427039 0.867449 6.811957 3.830228 2.087460 4.716614 0.245496 1.391715 1.132729 -8.070826 -3.834975 -11.631436 2.743936 1.093395 40.404286 3.373751 1.328687 16.553933 0.000000 0.000000 0.000000 -2.290547 6.736995 -11.707058 10.934847 -18.188219 1.755613 14.859853 11.255623 -22.382669 0.000000 0.000000 0.000000 -7.125000 0.000000 0.000000 -14.439493 52.480934 2.704926 0.000000 0.000000 0.000000 -4.658119 0.104110 16.736995 -14.321873 -23.192904 -2.953662 -22.130919 -14.445588 -11.030428 0.000000 0.000000 0.000000 7.125000 0.000000 0.000000 3.492898 18.109166 2.238340
-0.617597 20.060558 -12.266739 -171.478010 6.196512 -184.100548 0.000000 0.000000 0.000000 -6.010671 -3.477802 -34.257498 4.050573 12.226234 36.538693 0.791606 16.016724 18.186860 0.313256 3.597604 9.947335 0.000000 0.000000 0.000000 31.462933 -5.640631 13.440701 -0.875216 -5.964079 16.680456 -1.163904 7.498046 -19.276627 -0.558039 -4.783755 13.292987 6.730879 0.759347 5.946882 3.863328 1.860520 4.744823 0.150402 1.292747 1.643776 -8.248610 -3.606129 -10.820744 2.654415 1.612623 40.460399 3.447944 1.558165 16.350361 0.000000 0.000000 0.000000 -2.746697 7.854230 -11.261531 11.374300 -18.859687 1.895114 14.939619 11.409426 -23.124516 0.000000 0.000000 0.000000 -7.125000 0.000000 0.000000 -14.696684 53.223701 3.024094 0.000000 0.000000 0.000000 -5.253452 -0.008769 16.568658 -15.081613 -24.259451 -3.259572 -21.073337 -13.956585 -11.464201 0.000000 0.000000 0.000000 7.125000 0.000000 0.000000 4.249450 17.738363 2.760330
-0.692353 19.554010 -12.859159 -171.758012 6.702082 -184.138492 0.000000 0.000000 0.000000 -5.744829 -5.052498 -32.781374 3.376851 11.279893 33.231592 0.790662 15.503151 17.975386 0.681023 5.275733 14.696881 0.000000 0.000000 0.000000 29.978418 -10.038419 16.732722 -0.837741 -5.834333 16.305774 -1.346977 -6.456481 -25.123249 -5.736472 14.162625 -43.904095 6.089955 0.670840 4.790798 4.077920 1.574912 4.523992 0.762005 1.116061 2.020832 -8.433541 -3.418038 -10.679462 2.334007 2.216030 40.783492 3.460702 1.769226 16.461793 0.000000 0.000000 0.000000 -3.582540 9.034129 -10.730571 12.187129 -20.084649 2.166139 15.989982 9.983260 -21.522381 0.000000 0.000000 0.000000 -7.125000 0.000000 0.000000 -12.967024 51.825128 2.210010 0.000000 0.000000 0.000000 -6.148035 0.025346 17.279407 -15.758460 -25.192022 -3.542602 -22.869502 -16.668603 -11.273610 0.000000 0.000000 0.000000 7.125000 0.000000 0.000000 2.983199 17.781965 1.932047
